<?xml version="1.0" standalone="no"?>
<!DOCTYPE svg PUBLIC "-//W3C//DTD SVG 20010904//EN"
 "http://www.w3.org/TR/2001/REC-SVG-20010904/DTD/svg10.dtd">
<svg version="1.0" xmlns="http://www.w3.org/2000/svg"
 width="824.000000pt" height="824.000000pt" viewBox="0 0 824.000000 824.000000"
 preserveAspectRatio="xMidYMid meet">

<g transform="translate(0.000000,824.000000) scale(0.100000,-0.100000)"
fill="#000000" stroke="none">
<path d="M1898 7519 c-306 -36 -594 -181 -809 -407 -179 -188 -291 -407 -346
-677 -17 -85 -18 -202 -18 -2315 l0 -2225 23 -103 c63 -288 187 -510 391 -705
183 -173 389 -281 651 -340 95 -21 97 -21 2260 -25 1531 -2 2197 0 2274 8 333
34 610 169 838 409 210 220 327 477 358 787 8 77 10 743 8 2274 -4 2163 -4
2165 -25 2260 -59 264 -169 472 -348 659 -187 195 -409 318 -692 383 l-98 22
-2195 2 c-1227 1 -2229 -2 -2272 -7z m1972 -1808 l0 -248 -60 -6 c-80 -7 -138
-40 -170 -97 -25 -45 -25 -47 -28 -332 l-3 -287 43 -11 c70 -17 199 -70 263
-108 129 -78 274 -247 326 -380 l23 -59 70 -7 c225 -21 422 -112 577 -268 83
-82 133 -153 189 -266 132 -268 130 -538 -5 -818 -126 -260 -334 -434 -607
-506 -81 -21 -102 -22 -725 -25 l-643 -4 0 965 c0 804 -2 966 -13 966 -20 0
-88 -51 -121 -91 -60 -70 -70 -109 -74 -281 l-4 -158 -237 0 c-334 0 -416 -22
-521 -137 -74 -81 -130 -216 -130 -314 0 -170 106 -340 257 -412 l68 -32 260
-5 260 -5 3 -248 2 -247 -227 0 c-319 0 -433 19 -593 100 -242 122 -413 333
-492 605 -20 68 -23 102 -23 235 0 130 4 169 24 240 107 396 432 676 821 707
l75 6 47 96 c25 53 68 123 95 156 107 132 267 235 441 285 l82 24 0 287 c0
305 8 383 50 489 70 178 212 316 395 385 72 28 195 53 263 54 l42 1 0 -249z
m1719 219 c271 -75 462 -268 532 -535 19 -72 22 -120 28 -490 6 -357 9 -414
23 -441 26 -49 101 -77 236 -90 l72 -7 0 -241 0 -242 -97 -12 c-117 -15 -179
-42 -208 -92 -19 -33 -20 -58 -26 -450 -5 -337 -9 -425 -22 -470 -77 -269
-237 -444 -477 -524 -82 -27 -239 -52 -264 -43 -15 6 -16 34 -14 249 l3 243
57 7 c101 13 172 64 205 148 15 39 18 101 23 460 8 451 8 456 70 587 17 37 42
82 56 100 l24 32 -35 49 c-39 55 -71 123 -93 197 -10 37 -16 158 -24 465 -7
300 -13 429 -23 465 -25 86 -102 148 -207 163 l-53 7 -3 235 c-1 129 0 241 3
249 7 18 115 8 214 -19z m-739 -660 l0 -120 -345 0 -345 0 0 120 0 120 345 0
345 0 0 -120z m325 -345 l0 -120 -507 -3 -508 -2 0 125 0 125 508 -2 507 -3 0
-120z m0 -340 l0 -120 -345 0 -345 0 -3 109 c-1 61 0 116 2 123 5 11 71 13
348 11 l343 -3 0 -120z"/>
<path d="M3610 3505 l0 -715 363 0 c303 0 372 3 418 16 98 29 177 91 238 188
84 134 94 290 30 427 -45 94 -111 167 -188 208 -96 51 -165 61 -428 61 l-233
0 0 143 c0 160 -6 190 -52 266 -29 49 -113 121 -139 121 -5 0 -9 -303 -9 -715z"/>
</g>
</svg>
